<?xml version="1.0" encoding="UTF-8"?>
<svg id="artwork" xmlns="http://www.w3.org/2000/svg" version="1.1" viewBox="0 0 612.5 210.4">
  <!-- Generator: Adobe Illustrator 30.2.1, SVG Export Plug-In . SVG Version: 2.1.1 Build 1)  -->
  <defs>
    <style>
      .st0 {
        fill: #fff;
      }
    </style>
  </defs>
  <path class="st0" d="M113.7,106.1c1.3-5.9,4.4-22.5-4.1-22.2s-13.4,10.1-15,17.4l-12.5,58.8h-26.7l1.7-10.1c-6.6,6.9-15.2,10.9-24.8,11.3s-15.9-3.4-19-11.5c-2.2-6-2.5-13.1-1.1-19.7l12.7-58.8-11-.5,2.6-9.7,11.1-.4,5.2-23.3,27-1.5-5.2,24.6,10.7.7-2.3,9.6-11.2.2-13.9,63.8c-.4,2.1.8,5.7,2.1,6.8,6.5,5.5,19.5-3.5,21.9-14l20.7-93.2,26.8-1.3-9.6,43.2c6.8-7,14.1-10,23.3-9.6,10.4.4,18.1,7.4,18.5,18.3.3,8.3-1.6,16.6-3.5,24.8l-5.1,22.1c-.6,2.5,0,7.6,1.7,9.2,3.1,3.1,8.6,2.3,11.5-.2-1.8-20.5,3.1-41.1,15.2-57.6,10.3-14,26.9-20.4,43.6-16.3,5.5,1.4,9.7,5.7,10.7,11.2,4.4,24-18.7,42.9-41.8,44.5-1.4,8.6-1.9,21.4,9.8,22.5s23.3-5,31.4-14.4c2.6-3,5.4-5.5,9.9-3.3-12.4,21.2-33.5,38.1-60,32.6s-10.4-4.3-14.5-8.9c-8.7,9.8-23.4,13.4-35.1,6.4-6.7-4-9.3-13-8.2-20.7s4-20.3,6.4-31v.2ZM175.9,113.9c17.3-2.9,29.2-20.3,24.7-36.2-11.2-9.9-25.6,28.5-24.7,36.2Z"/>
  <path class="st0" d="M460.6,79.6c.6,5.4-1.3,9.8-4.8,12.7s-8.5,4-12.8,1.9-2.9-4.7-3.4-6.5l-1-3.5c-1.1-3.8-12.3,1.5-15.4,6.1l-14.7,69.8h-26.5l.7-7.9c-8.4,7.2-18.4,10.8-29,8.2s-10.6-8.1-12.2-15.4c-6.2,8.4-13.5,14.7-23.3,16-14.3,2-26.2-6.5-28-21.3-2.5-20.4,3.7-41.8,16.6-57.8,9.8-12.2,24.4-18,39.4-13.9s5.7,4.4,6.4,6.9c.3-2.1,1.1-5.4,2.4-7.4h26c0,0-14.1,67.5-14.1,67.5-.5,2.4.9,6.4,2.3,7.8s5.6,1.9,8,1.1c4.8-1.6,9.1-7,10.3-12.4l13.6-63.8h26.6c0,0-1.6,10.6-1.6,10.6,5.8-4.7,10.9-8.9,17.9-10.3s15.5,2.7,16.5,11.7h.1ZM329.5,142.6c6.3-2.6,10.4-8.2,11.7-14.4l8.9-41.3c.5-2.3-.6-5.6-2.2-7-5.6-4.8-15.1,1.6-19.2,8.7-8.1,13.9-12.5,30-11.1,46s2.2,5.9,3.7,7.3,5.9,1.6,8.2.7Z"/>
  <path class="st0" d="M552.6,100.1c1-4.8,1.3-11.4-1.7-14.5-3.4-3.5-9.5-1.1-12,2.2-3.8,5.1-6,10.6-7.3,16.7l-11.7,55.6h-26.9c0,.1,14.3-67.9,14.3-67.9.5-2.3-1.3-6.1-2.7-7.3-5.6-5-15.5,5.3-17.6,15.2l-12.9,60.2h-26.8l19.5-92.4,26.5-.2-1.1,8.9c6.4-7.1,14.6-10,24-9.6,9.4.4,15.2,6,17.2,15.7,7-11.9,19.5-18.2,33-14.6,17.4,4.7,13.5,25.6,10.4,38.8l-5.9,25.4c-.6,2.5,0,7.8,1.8,9.3,4.4,3.7,11,1.7,14.3-2.5s4.3-7.2,6.1-10.9c1.7-1.1,5.3-1,8.1-.4-2.8,8.1-6.1,15.2-11.3,22.2-8.6,11.5-24.6,15.6-37.1,7.7-6.7-4.3-9.1-13.6-7.5-21.4l7.4-35.9v-.3Z"/>
  <path class="st0" d="M302,61.3l-1.2,9.7-11.8.2-22.9,104.4c-3.9,18-13.9,31.5-33.8,30.9s-17.1-5.6-19.8-13.3c-3-8.3-.8-18,6.3-23.8,6.9-5.7,15.5-7.9,24.1-10.8l28.5-130.3c4-18.2,22.1-27.8,38.9-23.3,15.8,4.3,16,19.5,14.2,32.8h-8.6v-12.4c0-4-5.3-5.8-9.1-4.6s-8.3,5.6-9.2,10.2l-6.3,29.9,11.1.5h-.4ZM241.6,165.2c-8.4,1.5-22.9,9.9-19.6,20.4s5.6,4.8,8.3,4c7.7-2.4,8.6-14.9,11.3-24.4Z"/>
  <path class="st0" d="M317.2,196.3c0,2.3-1.3,5.7-2.8,6.8s-6,1.6-7.8,1l-1.9-.7c-.4-.1-.5-1.8-.1-1.9h2.4c0-.1,4.9-.3,4.9-.3,1.1,0,1.7-2.9,1.6-4.1-3,1.4-6.9,1.8-8.9,0-3-2.5-3.8-6.3-2.8-8.9,1.5-3.8,5-6.3,9.2-4.4s3,.6,5.9-.4l.4,12.8h-.1ZM307.6,186.6c-2.6,1-3.5,4.7-2.6,6.5s4.3,2.7,6.6,1.9,2.7-3.9,2-5.8-3.8-3.4-6-2.6h0Z"/>
  <path class="st0" d="M370.2,192.3l3.4-7.6c.2-.4,1.6-1.3,2.1-1.5s1.3,1.5,1.1,2l-6.6,14-4.6-8.2-4.6,8.4-6.3-13.3c-.3-.7-.5-2.7,0-2.6s2.3.4,2.5.9l3.7,8.9,3.8-8.3c.1-.3,1.2-1.4,1.5-1.6,3.8-3.1-1.2,5.8,4.1,8.9h-.1Z"/>
  <path class="st0" d="M409.2,198.9c-6.4.6.2-10.9-5.5-12.8s-4.4,1.5-4.4,2.9l-.2,8c0,.5-1.2,2-1.6,1.7-.6-.4-1.6-1.8-1.6-2.7v-17.8c0-.8,1.1-2.7,1.6-2.4s1.5,1.5,1.5,2.2l.4,6.3c2-.6,3.9-1.2,5.1-1.3s3.9,2.5,4.8,3.7l-.2,12.1h.1Z"/>
  <path class="st0" d="M561.9,192.8c2.7,5.5,5,1.3,9.3,2.8s-.8,2.2-1.4,2.5c-3.1,1.6-7.4.8-9.5-1.6s-2.9-7.1-.2-10.6,6.1-3.3,8.8-2,4.8,4.4,4,8.4l-11.1.7v-.2ZM570.1,189.2c-1.6-2.4-3.3-3.3-5.2-2.9s-2.4,1.9-2.8,3.4l8-.5Z"/>
  <path class="st0" d="M487,192.8c1.4,6.4,10.5-.3,9,3.5s-7.1,3.2-9.6,1.2-4.1-6.5-2.4-10c1.8-3.7,6.2-5.4,10.3-3.4s5.1,5.5,3,8.2l-10.3.6h0ZM494.7,189.2c-1-2.3-3.3-3.4-4.9-3s-2,1.6-2.8,3.1h7.7Z"/>
  <path class="st0" d="M342.2,183.4c4.7-1.3,8.6,1.9,9.6,5.6s-1.5,8.2-5.9,9.6-7.8-1.4-9.2-4.8.4-9.1,5.4-10.4h.1ZM342.4,186.5c-3.1,1.5-3.5,5-2.1,7.2s4,2.4,5.9,1.7,3.1-4.2,2.3-6.3-4-3.7-6.2-2.6h.1Z"/>
  <path class="st0" d="M448.2,183.6c4.7-1.6,8.9,1.7,9.8,5.2s-1,8.3-5.2,9.7-8.2-1.1-9.5-4.2c-1.8-4.4,0-9.1,4.8-10.7h.1ZM448.3,186.8c-2.5,1.3-2.8,5.1-1.5,7.2s4.1,2.2,6.1,1.2,2.7-4.1,1.9-6.3-4.1-3.4-6.5-2.1h0Z"/>
  <path class="st0" d="M513.8,184.3c9,5.4-4.8-.2-7.8,4.1s-.7,4.4.5,5.9c2.7,3.2,10-1.4,8.4,1.9s-7.1,3.2-9.5,1.4c-3.6-2.8-4.2-7.1-2.1-10.8s7.1-4.4,10.5-2.4h0Z"/>
  <path class="st0" d="M436.1,184.1c7.8,5-4.4.9-6.7,3.6s-1.5,4.2-.4,6c2.2,3.6,5.9.5,8.6,1.7s-.4,2-1.1,2.4c-2.7,1.6-7.3,1.1-9.5-1.3s-2.7-6.8-.9-9.8,6.7-4.7,9.9-2.6h.1Z"/>
  <path class="st0" d="M548.6,192l3.4-6.8c.2-.5,1.3-1.6,1.7-2s1.8,1.6,1.6,2.1l-6.7,14-6.8-14.1c-.3-.6.5-2.2.9-2s2,.9,2.2,1.3l3.7,7.4h0Z"/>
  <path class="st0" d="M528.1,197.8c-.3.7-3.3.9-4.3.1-4.8-3.7,0-7.8-4.3-13.1l3.7-7.2,1.7,4.5c.3.9,1.9,1.6,3.4,2.8l-3.2,1.6c-.5.3-2.3,6.8,3,11.2h0Z"/>
  <path class="st0" d="M387,186.6c-.1,5.2-1.3,7.7,3.3,10.1s-.9,2-1.5,2c-8.4.3-2.7-13.2-7.4-13.6l4.1-7.5,2,5.8,2.2.6c.4.1.9,1.5.6,1.6l-3.2,1h-.1Z"/>
  <path class="st0" d="M466.3,177.6v18.4c0,.6-.4,1.9-.5,2.4-.2.7-2.6-.7-2.6-1.4v-18.7l.6-2.1c.1-.4,2.5,1,2.5,1.4h0Z"/>
  <path class="st0" d="M477.6,176.8l.2,19.2c0,.8-1.3,2.7-1.9,2.6s-1.4-1.6-1.4-2.4v-19c0-.6,3.1-.9,3.1-.3h0Z"/>
  <path class="st0" d="M333.7,186.2c-1.7.2-5.7-.2-6.3,1.1-.8,2.1-.9,6.1-1.2,8.7l-.3,2.4c0,.7-2.7-.7-2.7-1.5v-13.3c.1,0,3,1.1,3,1.1,1.9.7-.4-1.2,6.1-1.4s1.5,2.3,1.3,3h.1Z"/>
  <path class="st0" d="M537.1,195.7c0,1.1-.8,3.2-1.5,2.9s-1.9-1.8-1.9-2.5v-10.9c0-.6,1.5-2.4,1.9-2.1s1.4,1.6,1.4,2.1v10.4h0Z"/>
</svg>